<svg width="1826" height="1409" viewBox="0 0 1826 1409" fill="none" xmlns="http://www.w3.org/2000/svg">
<g clip-path="url(#clip0)">
<g opacity="0.3" filter="url(#filter0_f)">
<path d="M743.333 597.396C771.207 593.719 798.587 565.335 826.602 565.083C833.825 565.615 851.212 559.351 862.972 530.048C891.689 504.83 909.075 414.321 943.773 397.522C969.317 385.155 999.993 371.985 1028.25 383.445C1050.03 392.281 1065.83 411.806 1078.26 430.965C1096.27 458.719 1109.45 490.075 1115.85 522.572C1136.73 628.512 1098.67 738.993 1050.21 831.899C991.155 945.102 901.205 1036.42 796.303 1108.18C753.042 1137.78 707.635 1163.14 657.903 1180.04C612.114 1195.6 564.367 1206.42 516.453 1212.86C455.458 1221.06 392.119 1220.62 332.896 1202.42C287.853 1188.57 254.38 1157.29 229.592 1117.73C195.705 1063.66 194.433 998.699 220.916 940.622C237.25 904.801 271.424 867.816 314.531 873.544C347.414 877.914 374.776 901.115 402.125 917.825C420.402 928.992 446.489 944.42 466.788 929.721C501.125 904.857 527.378 866.469 550.026 831.518C578.957 786.87 593.658 736.246 615.857 688.402C628.642 660.847 652.04 640.795 676.657 623.897C696.449 610.31 719.436 600.548 743.333 597.396Z" fill="#7928CA"/>
</g>
<g opacity="0.3" filter="url(#filter1_f)">
<path d="M774.079 509.55C790.791 518.635 817.069 514.008 832.494 525.023C836.234 528.189 848.238 531.684 866.337 520.336C892.086 517.973 937.628 475.383 963.296 480.007C982.193 483.41 1004.22 488.418 1015.11 505.935C1023.51 519.44 1024.38 536.41 1023.55 551.841C1022.36 574.193 1017.08 596.59 1007.65 616.916C976.893 683.181 912.094 728.468 848.596 759.997C771.226 798.414 685.669 812.557 599.713 810.055C564.266 809.024 529.331 804.819 495.398 794.266C464.156 784.549 433.728 771.463 404.953 755.911C368.323 736.113 333.848 710.66 308.7 677.123C289.573 651.616 283.714 621.179 285.901 589.674C288.89 546.603 314.055 510.561 351.663 489.334C374.858 476.241 408.276 469.614 429.576 489.908C445.825 505.389 451.557 528.973 459.865 549.002C465.418 562.387 473.547 581.211 490.502 581.251C519.184 581.319 548.827 570.771 575.131 560.668C608.732 547.761 636.927 525.92 668.116 508.586C686.08 498.602 706.863 496.947 727.056 497.503C743.292 497.95 759.753 501.761 774.079 509.55Z" fill="#FF0080"/>
</g>
<g opacity="0.8" filter="url(#filter2_f)">
<path d="M914.426 490.112C922.326 500.418 933.255 497.916 940.755 510.029C942.612 513.456 948.048 517.861 954.931 508.066C965.811 507.762 982.021 469.234 993.419 475.835C1001.81 480.693 1011.67 487.386 1017.74 505.571C1022.41 519.592 1024.13 536.445 1024.99 551.642C1026.24 573.656 1025.74 595.39 1023.29 614.749C1015.31 677.86 991.034 717.535 966.232 743.705C936.012 775.592 900.356 782.823 863.215 773.56C847.898 769.741 832.551 762.823 817.133 749.706C802.938 737.628 788.826 722.282 775.231 704.628C757.923 682.154 741.096 654.256 727.639 619.1C717.403 592.361 712.482 561.795 710.933 530.807C708.817 488.443 716.786 454.783 731.274 436.758C740.209 425.64 754.049 421.724 764.807 443.478C773.013 460.073 777.339 483.853 782.492 504.318C785.935 517.995 790.916 537.256 798.207 538.635C810.539 540.967 822.447 532.875 832.954 524.959C846.377 514.847 856.77 495.472 868.807 480.79C875.739 472.334 884.541 472.339 893.264 474.483C900.277 476.208 907.653 481.276 914.426 490.112Z" fill="#FF0080"/>
</g>
<g opacity="0.3" filter="url(#filter3_f)">
<path d="M1474.09 450.412C1481 474.241 1507.85 485.713 1512.01 511.322C1512.6 518.212 1520.13 531.162 1545.52 527.845C1569.99 542.07 1645.75 514.431 1664.25 538.205C1677.87 555.707 1692.86 577.536 1687.57 609.006C1683.49 633.27 1669.91 657.188 1656.15 677.839C1636.21 707.752 1612.68 734.957 1587.27 756.496C1504.42 826.712 1409.57 844.992 1327.49 845.241C1227.48 845.546 1140.84 806.927 1067.91 745.159C1037.84 719.686 1010.89 690.2 990.184 652.666C971.12 618.109 955.615 579.472 943.637 538.568C928.389 486.497 919.801 428.115 926.188 364.95C931.046 316.908 951.653 271.095 980.187 229.272C1019.2 172.095 1071.62 139.63 1122.4 135.971C1153.71 133.715 1188.49 147.282 1189.93 189.632C1191.03 221.939 1176.11 258.248 1166.43 291.417C1159.97 313.583 1151.16 344.976 1165.93 356.537C1190.91 376.094 1225.7 381.711 1257.2 385.672C1297.45 390.732 1340.52 379.843 1382.4 377.18C1406.52 375.646 1426.06 387.475 1443.22 401.942C1457.02 413.575 1468.17 429.983 1474.09 450.412Z" fill="#F7B955"/>
</g>
</g>
<defs>
<filter id="filter0_f" x="-124" y="6.99988" width="1666.43" height="1651.81" filterUnits="userSpaceOnUse" color-interpolation-filters="sRGB">
<feFlood flood-opacity="0" result="BackgroundImageFix"/>
<feBlend mode="normal" in="SourceGraphic" in2="BackgroundImageFix" result="shape"/>
<feGaussianBlur stdDeviation="125" result="effect1_foregroundBlur"/>
</filter>
<filter id="filter1_f" x="19" y="142" width="1285.32" height="965.599" filterUnits="userSpaceOnUse" color-interpolation-filters="sRGB">
<feFlood flood-opacity="0" result="BackgroundImageFix"/>
<feBlend mode="normal" in="SourceGraphic" in2="BackgroundImageFix" result="shape"/>
<feGaussianBlur stdDeviation="125" result="effect1_foregroundBlur"/>
</filter>
<filter id="filter2_f" x="446.097" y="142" width="858.226" height="906.447" filterUnits="userSpaceOnUse" color-interpolation-filters="sRGB">
<feFlood flood-opacity="0" result="BackgroundImageFix"/>
<feBlend mode="normal" in="SourceGraphic" in2="BackgroundImageFix" result="shape"/>
<feGaussianBlur stdDeviation="125" result="effect1_foregroundBlur"/>
</filter>
<filter id="filter3_f" x="533" y="-164" width="1491.1" height="1393.09" filterUnits="userSpaceOnUse" color-interpolation-filters="sRGB">
<feFlood flood-opacity="0" result="BackgroundImageFix"/>
<feBlend mode="normal" in="SourceGraphic" in2="BackgroundImageFix" result="shape"/>
<feGaussianBlur stdDeviation="125" result="effect1_foregroundBlur"/>
</filter>
<clipPath id="clip0">
<rect width="1826" height="1409" fill="white"/>
</clipPath>
</defs>
</svg>
