<?xml version="1.0" encoding="UTF-8"?>
<!DOCTYPE svg PUBLIC "-//W3C//DTD SVG 1.1//EN" "http://www.w3.org/Graphics/SVG/1.1/DTD/svg11.dtd">
<!-- Creator: CorelDRAW 2019 (64-Bit) -->
<svg xmlns="http://www.w3.org/2000/svg" xml:space="preserve" width="32px" height="32px" version="1.1" style="shape-rendering:geometricPrecision; text-rendering:geometricPrecision; image-rendering:optimizeQuality; fill-rule:evenodd; clip-rule:evenodd"
viewBox="0 0 32 32"
 xmlns:xlink="http://www.w3.org/1999/xlink"
 xmlns:xodm="http://www.corel.com/coreldraw/odm/2003">
 <defs>
  <style type="text/css">
   <![CDATA[
    .fil0 {fill:#474A1D}
    .fil1 {fill:#F49600}
   ]]>
  </style>
 </defs>
 <g id="Layer_x0020_1">
  <metadata id="CorelCorpID_0Corel-Layer"/>
  <g id="_496507453984">
   <path class="fil0" d="M0 16.12c0.03,3.88 1.47,7.59 4.07,10.5l0.09 0.1c0.01,0 0.01,0 0.01,0l0.24 0.27c0,0 0.01,0 0.01,0l0 0c0.01,0 0.01,0.01 0.02,0.01l0.17 0.16c0.65,0.51 1.29,0.8 2.09,0.98 0.51,0.12 1.11,0.17 1.63,0.18 0.52,0.01 1.04,-0.04 1.55,-0.11 0.21,-0.02 0.41,-0.05 0.62,-0.09 0.82,-0.14 1.61,-0.43 2.26,-0.96 0.71,-0.56 1.21,-1.26 1.55,-2.1 0.66,-1.64 0.68,-3.38 0.73,-5.12 0.01,-0.17 0,-0.35 0.01,-0.53 0.02,-0.95 -0.03,-1.96 -0.04,-2.93 -0.01,-1.44 -0.01,-2.88 -0.02,-4.32 -0.03,-3.18 -0.15,-6.41 -0.1,-9.58 0.01,-0.53 0.18,-2.08 -0.16,-2.43 -0.22,-0.23 -0.71,-0.09 -0.99,-0.04 -0.94,0.18 -2.13,0.49 -3.04,0.8l-0.08 0.03c-2.94,1.05 -5.33,2.82 -7.25,5.26 -2.22,2.86 -3.37,6.31 -3.37,9.92z"/>
   <path class="fil0" d="M27.52 27.36c1.41,-1.39 2.56,-3.04 3.38,-4.85 0.79,-1.83 1.13,-2.89 1.09,-4.97 0,-0.16 0,-0.26 0,-0.31 0.01,-0.05 0.01,-0.04 -0.11,-0.04l-0.87 0c-1.53,0 -11.76,0.02 -13.4,0 -0.07,0 -0.11,0.01 -0.12,0.02 -0.09,0.06 -0.15,0.28 -0.18,0.58 -0.08,0.81 0.03,1.6 -0.02,2.38 -0.42,5.13 -0.77,9.27 -7.02,10.21 -0.95,0.15 -0.74,0.26 0.04,0.57 2.8,1.1 6.22,1.32 9.16,0.72 3.09,-0.65 5.78,-2.14 8.05,-4.31z"/>
   <path class="fil1" d="M18.82 6.49c0.77,1.43 1.75,2.72 2.93,3.88 2.67,2.54 5.57,3.98 9.23,4.49 0.73,0.1 1.01,-0.04 1.01,-0.37l0 -1.22 0 -12.24c0,-1 0.06,-1 -0.86,-1.01 -1.08,0 -11.3,-0.05 -13.53,0l-0.48 0c-0.14,0 -0.26,0.12 -0.26,0.27l0 14.37 1.96 0 0 -8.17z"/>
  </g>
 </g>
</svg>
